<svg xmlns="http://www.w3.org/2000/svg" xmlns:xlink="http://www.w3.org/1999/xlink" width="500" zoomAndPan="magnify" viewBox="0 0 375 374.999991" height="500" preserveAspectRatio="xMidYMid meet" version="1.0"><defs><g/><clipPath id="77f2f12803"><path d="M 0.121094 0 L 8 0 L 8 12 L 0.121094 12 Z M 0.121094 0 " clip-rule="nonzero"/></clipPath><clipPath id="14a257df13"><rect x="0" width="56" y="0" height="16"/></clipPath><clipPath id="0ec3f9cae5"><path d="M 35 242 L 301 242 L 301 342.441406 L 35 342.441406 Z M 35 242 " clip-rule="nonzero"/></clipPath><clipPath id="b324715979"><path d="M 25.9375 183 L 337.1875 183 L 337.1875 277 L 25.9375 277 Z M 25.9375 183 " clip-rule="nonzero"/></clipPath><clipPath id="7436ee57e4"><path d="M 122 32.691406 L 249 32.691406 L 249 154 L 122 154 Z M 122 32.691406 " clip-rule="nonzero"/></clipPath></defs><g transform="matrix(1, 0, 0, 1, 219, 234)"><g clip-path="url(#14a257df13)"><g clip-path="url(#77f2f12803)"><g fill="#000000" fill-opacity="1"><g transform="translate(0.150986, 10.905404)"><g><path d="M 0.375 -3.15625 L 2.21875 -3.15625 C 2.21875 -2.71875 2.359375 -2.335938 2.640625 -2.015625 C 2.929688 -1.691406 3.316406 -1.53125 3.796875 -1.53125 C 4.234375 -1.53125 4.601562 -1.660156 4.90625 -1.921875 C 5.207031 -2.179688 5.359375 -2.539062 5.359375 -3 C 5.359375 -3.351562 5.265625 -3.625 5.078125 -3.8125 C 4.890625 -4.007812 4.65625 -4.160156 4.375 -4.265625 C 4.101562 -4.378906 3.828125 -4.476562 3.546875 -4.5625 C 3.160156 -4.664062 2.796875 -4.78125 2.453125 -4.90625 C 2.117188 -5.03125 1.785156 -5.21875 1.453125 -5.46875 C 0.679688 -6.039062 0.296875 -6.816406 0.296875 -7.796875 C 0.296875 -8.378906 0.441406 -8.898438 0.734375 -9.359375 C 1.035156 -9.828125 1.429688 -10.191406 1.921875 -10.453125 C 2.421875 -10.722656 2.953125 -10.859375 3.515625 -10.859375 C 3.878906 -10.859375 4.226562 -10.796875 4.5625 -10.671875 C 4.90625 -10.546875 5.1875 -10.335938 5.40625 -10.046875 L 5.40625 -10.640625 L 6.96875 -10.640625 L 6.96875 -7.78125 L 5.140625 -7.78125 C 5.128906 -8.175781 4.992188 -8.503906 4.734375 -8.765625 C 4.484375 -9.035156 4.15625 -9.171875 3.75 -9.171875 C 3.351562 -9.171875 3.015625 -9.050781 2.734375 -8.8125 C 2.453125 -8.582031 2.3125 -8.257812 2.3125 -7.84375 C 2.3125 -7.488281 2.398438 -7.21875 2.578125 -7.03125 C 2.753906 -6.84375 2.976562 -6.695312 3.25 -6.59375 C 3.519531 -6.5 3.785156 -6.410156 4.046875 -6.328125 C 4.460938 -6.222656 4.863281 -6.097656 5.25 -5.953125 C 5.632812 -5.816406 5.992188 -5.617188 6.328125 -5.359375 C 7.035156 -4.796875 7.390625 -4.050781 7.390625 -3.125 C 7.390625 -2.488281 7.242188 -1.914062 6.953125 -1.40625 C 6.660156 -0.90625 6.257812 -0.507812 5.75 -0.21875 C 5.25 0.0625 4.675781 0.203125 4.03125 0.203125 C 3.613281 0.203125 3.234375 0.128906 2.890625 -0.015625 C 2.546875 -0.160156 2.242188 -0.390625 1.984375 -0.703125 L 1.984375 0 L 0.375 0 Z M 0.375 -3.15625 "/></g></g></g></g><g fill="#000000" fill-opacity="1"><g transform="translate(7.90122, 10.905404)"><g><path d="M 8.203125 -7.953125 L 8.203125 -1.703125 L 9.234375 -1.703125 L 9.234375 0 L 6.53125 0 L 6.53125 -0.984375 C 6.269531 -0.597656 5.921875 -0.300781 5.484375 -0.09375 C 5.046875 0.101562 4.59375 0.203125 4.125 0.203125 C 3.695312 0.203125 3.289062 0.117188 2.90625 -0.046875 C 2.53125 -0.222656 2.203125 -0.476562 1.921875 -0.8125 C 1.628906 -1.15625 1.4375 -1.515625 1.34375 -1.890625 C 1.257812 -2.273438 1.21875 -2.679688 1.21875 -3.109375 L 1.21875 -6.265625 L 0.1875 -6.265625 L 0.1875 -7.953125 L 3.046875 -7.953125 L 3.046875 -3.65625 C 3.046875 -3.40625 3.054688 -3.144531 3.078125 -2.875 C 3.109375 -2.613281 3.203125 -2.375 3.359375 -2.15625 C 3.503906 -1.925781 3.695312 -1.753906 3.9375 -1.640625 C 4.175781 -1.523438 4.429688 -1.46875 4.703125 -1.46875 C 4.953125 -1.46875 5.195312 -1.523438 5.4375 -1.640625 C 5.675781 -1.765625 5.875 -1.925781 6.03125 -2.125 C 6.207031 -2.363281 6.304688 -2.613281 6.328125 -2.875 C 6.359375 -3.144531 6.375 -3.421875 6.375 -3.703125 L 6.375 -6.265625 L 5.34375 -6.265625 L 5.34375 -7.953125 Z M 8.203125 -7.953125 "/></g></g></g><g fill="#000000" fill-opacity="1"><g transform="translate(17.439969, 10.905404)"><g><path d="M 3.09375 -10.640625 L 3.09375 -6.8125 C 3.382812 -7.226562 3.738281 -7.539062 4.15625 -7.75 C 4.582031 -7.96875 5.050781 -8.078125 5.5625 -8.078125 C 6.125 -8.078125 6.648438 -7.96875 7.140625 -7.75 C 7.640625 -7.539062 8.078125 -7.25 8.453125 -6.875 C 8.828125 -6.5 9.117188 -6.0625 9.328125 -5.5625 C 9.546875 -5.070312 9.65625 -4.546875 9.65625 -3.984375 C 9.65625 -3.460938 9.5625 -2.957031 9.375 -2.46875 C 9.195312 -1.988281 8.9375 -1.554688 8.59375 -1.171875 C 8.238281 -0.785156 7.8125 -0.472656 7.3125 -0.234375 C 6.8125 0.00390625 6.296875 0.125 5.765625 0.125 C 5.242188 0.125 4.742188 0.015625 4.265625 -0.203125 C 3.796875 -0.429688 3.40625 -0.757812 3.09375 -1.1875 L 3.09375 0 L 0.25 0 L 0.25 -1.703125 L 1.28125 -1.703125 L 1.28125 -8.9375 L 0.25 -8.9375 L 0.25 -10.640625 Z M 5.4375 -6.421875 C 5 -6.421875 4.597656 -6.3125 4.234375 -6.09375 C 3.867188 -5.882812 3.578125 -5.597656 3.359375 -5.234375 C 3.140625 -4.878906 3.03125 -4.476562 3.03125 -4.03125 C 3.03125 -3.570312 3.140625 -3.15625 3.359375 -2.78125 C 3.578125 -2.40625 3.867188 -2.109375 4.234375 -1.890625 C 4.609375 -1.671875 5.023438 -1.5625 5.484375 -1.5625 C 5.929688 -1.5625 6.332031 -1.675781 6.6875 -1.90625 C 7.050781 -2.132812 7.335938 -2.4375 7.546875 -2.8125 C 7.753906 -3.1875 7.859375 -3.585938 7.859375 -4.015625 C 7.859375 -4.460938 7.75 -4.863281 7.53125 -5.21875 C 7.3125 -5.582031 7.019531 -5.875 6.65625 -6.09375 C 6.289062 -6.3125 5.882812 -6.421875 5.4375 -6.421875 Z M 5.4375 -6.421875 "/></g></g></g><g fill="#000000" fill-opacity="1"><g transform="translate(27.276805, 10.905404)"><g><path d="M 3.25 -6.265625 L 3.25 -1.703125 L 4.703125 -1.703125 L 4.703125 0 L 1.4375 0 L 1.4375 -6.265625 L 0.171875 -6.265625 L 0.171875 -7.953125 L 1.4375 -7.953125 L 1.4375 -10.640625 L 3.25 -10.640625 L 3.25 -7.953125 L 4.609375 -7.953125 L 4.609375 -6.265625 Z M 3.25 -6.265625 "/></g></g></g><g fill="#000000" fill-opacity="1"><g transform="translate(32.344266, 10.905404)"><g><path d="M 3.140625 -7.953125 L 3.140625 -1.703125 L 4.171875 -1.703125 L 4.171875 0 L 0.28125 0 L 0.28125 -1.703125 L 1.328125 -1.703125 L 1.328125 -6.265625 L 0.296875 -6.265625 L 0.296875 -7.953125 Z M 3.140625 -10.640625 L 3.140625 -8.71875 L 1.328125 -8.71875 L 1.328125 -10.640625 Z M 3.140625 -10.640625 "/></g></g></g><g fill="#000000" fill-opacity="1"><g transform="translate(36.815553, 10.905404)"><g><path d="M 3.25 -6.265625 L 3.25 -1.703125 L 4.703125 -1.703125 L 4.703125 0 L 1.4375 0 L 1.4375 -6.265625 L 0.171875 -6.265625 L 0.171875 -7.953125 L 1.4375 -7.953125 L 1.4375 -10.640625 L 3.25 -10.640625 L 3.25 -7.953125 L 4.609375 -7.953125 L 4.609375 -6.265625 Z M 3.25 -6.265625 "/></g></g></g><g fill="#000000" fill-opacity="1"><g transform="translate(41.883015, 10.905404)"><g><path d="M 3.171875 -10.640625 L 3.171875 -1.703125 L 4.203125 -1.703125 L 4.203125 0 L 0.25 0 L 0.25 -1.703125 L 1.359375 -1.703125 L 1.359375 -8.9375 L 0.328125 -8.9375 L 0.328125 -10.640625 Z M 3.171875 -10.640625 "/></g></g></g><g fill="#000000" fill-opacity="1"><g transform="translate(46.354302, 10.905404)"><g><path d="M 6.25 -2.34375 L 8.140625 -2.34375 C 7.929688 -1.832031 7.632812 -1.382812 7.25 -1 C 6.875 -0.625 6.441406 -0.328125 5.953125 -0.109375 C 5.460938 0.0976562 4.9375 0.203125 4.375 0.203125 C 3.800781 0.203125 3.257812 0.0976562 2.75 -0.109375 C 2.25 -0.328125 1.800781 -0.625 1.40625 -1 C 1.019531 -1.375 0.71875 -1.8125 0.5 -2.3125 C 0.289062 -2.820312 0.1875 -3.367188 0.1875 -3.953125 C 0.1875 -4.734375 0.367188 -5.441406 0.734375 -6.078125 C 1.097656 -6.722656 1.59375 -7.238281 2.21875 -7.625 C 2.84375 -8.007812 3.550781 -8.203125 4.34375 -8.203125 C 4.894531 -8.203125 5.429688 -8.085938 5.953125 -7.859375 C 6.472656 -7.628906 6.925781 -7.316406 7.3125 -6.921875 C 7.71875 -6.503906 8.003906 -6.039062 8.171875 -5.53125 C 8.347656 -5.03125 8.4375 -4.5 8.4375 -3.9375 L 8.375 -3.296875 L 1.9375 -3.296875 C 2.019531 -2.929688 2.175781 -2.601562 2.40625 -2.3125 C 2.632812 -2.019531 2.914062 -1.789062 3.25 -1.625 C 3.582031 -1.46875 3.941406 -1.390625 4.328125 -1.390625 C 4.722656 -1.390625 5.085938 -1.460938 5.421875 -1.609375 C 5.753906 -1.765625 6.03125 -2.007812 6.25 -2.34375 Z M 1.921875 -4.703125 L 6.75 -4.703125 C 6.59375 -5.273438 6.28125 -5.726562 5.8125 -6.0625 C 5.351562 -6.40625 4.832031 -6.578125 4.25 -6.578125 C 3.894531 -6.578125 3.550781 -6.488281 3.21875 -6.3125 C 2.894531 -6.144531 2.617188 -5.921875 2.390625 -5.640625 C 2.160156 -5.359375 2.003906 -5.046875 1.921875 -4.703125 Z M 1.921875 -4.703125 "/></g></g></g></g></g><g clip-path="url(#0ec3f9cae5)"><path fill="#82caa9" d="M 35.78125 242.105469 C 50.09375 249.730469 69.464844 250.277344 89.613281 250.742188 C 171.136719 252.84375 199.84375 292.515625 297.082031 279.371094 C 304.160156 285.125 300.269531 291.894531 290.859375 297.804688 C 293.191406 297.496094 242.628906 342.300781 180.394531 342.300781 C 153.089844 342.300781 127.417969 335.222656 105.167969 322.777344 C 82.6875 309.164062 117.070312 300.527344 137.0625 301.617188 C 151.6875 302.394531 170.203125 302.707031 189.652344 302.628906 C 172.070312 297.882812 153.554688 292.984375 135.507812 291.972656 C 91.867188 289.558594 83 312.898438 57.25 281.160156 C 45.738281 267.546875 42.082031 258.910156 35.78125 242.105469 Z M 35.78125 242.105469 " fill-opacity="1" fill-rule="evenodd"/></g><g clip-path="url(#b324715979)"><path fill="#00cdfb" d="M 221.15625 224.605469 C 181.40625 211.613281 132.164062 195.511719 77.007812 195.042969 L 131.308594 194.5 L 245.351562 193.332031 C 253.128906 209.980469 270.007812 221.570312 289.613281 221.570312 C 309.605469 221.570312 326.71875 209.589844 334.34375 192.398438 L 334.421875 192.242188 C 334.5 192.011719 334.652344 191.777344 334.730469 191.542969 L 334.808594 191.308594 C 335.277344 190.144531 335.742188 188.976562 336.132812 187.730469 L 336.210938 187.574219 C 336.289062 187.34375 336.367188 187.03125 336.445312 186.796875 L 336.519531 186.488281 C 336.597656 186.253906 336.675781 185.941406 336.753906 185.707031 L 336.832031 185.398438 C 336.910156 185.164062 336.988281 184.851562 337.066406 184.621094 L 337.144531 184.386719 C 337.222656 184.074219 337.300781 183.839844 337.375 183.53125 C 337.375 184.851562 337.453125 186.175781 337.453125 187.574219 C 337.453125 196.210938 336.753906 204.691406 335.355469 213.011719 C 331.386719 245.296875 306.648438 274.3125 270.632812 276.257812 C 178.605469 281.3125 155.890625 240.164062 79.03125 239.539062 C 32.667969 239.152344 29.246094 215.660156 27.921875 195.355469 C 70.164062 195.199219 156.046875 212.003906 221.15625 224.605469 Z M 334.886719 192.320312 C 334.964844 192.941406 335.042969 193.566406 335.199219 194.1875 C 335.042969 193.566406 334.964844 192.941406 334.886719 192.320312 Z M 335.121094 194.1875 C 335.199219 194.808594 335.277344 195.433594 335.355469 195.976562 C 335.277344 195.355469 335.199219 194.734375 335.121094 194.1875 Z M 335.355469 196.054688 C 335.433594 196.675781 335.511719 197.222656 335.511719 197.84375 C 335.511719 197.222656 335.433594 196.597656 335.355469 196.054688 Z M 335.511719 197.921875 C 335.585938 198.464844 335.585938 199.089844 335.664062 199.632812 C 335.585938 199.089844 335.585938 198.464844 335.511719 197.921875 Z M 335.664062 199.789062 C 335.664062 200.332031 335.742188 200.878906 335.742188 201.5 C 335.742188 200.957031 335.664062 200.332031 335.664062 199.789062 Z M 335.742188 201.65625 C 335.742188 202.199219 335.742188 202.746094 335.742188 203.289062 C 335.742188 202.746094 335.742188 202.199219 335.742188 201.65625 Z M 335.742188 203.601562 C 335.742188 204.144531 335.742188 204.613281 335.742188 205.15625 C 335.742188 204.613281 335.742188 204.066406 335.742188 203.601562 Z M 335.742188 205.46875 C 335.742188 205.933594 335.742188 206.480469 335.664062 206.945312 C 335.742188 206.480469 335.742188 206.011719 335.742188 205.46875 Z M 335.664062 207.335938 C 335.664062 207.800781 335.585938 208.347656 335.585938 208.8125 C 335.664062 208.347656 335.664062 207.800781 335.664062 207.335938 Z M 335.585938 209.203125 C 335.585938 209.667969 335.511719 210.136719 335.511719 210.601562 C 335.511719 210.136719 335.511719 209.667969 335.585938 209.203125 Z M 335.433594 211.070312 C 335.355469 211.535156 335.355469 212.003906 335.277344 212.46875 C 335.355469 212.003906 335.355469 211.535156 335.433594 211.070312 Z M 26.132812 189.910156 L 25.976562 189.910156 L 25.976562 189.675781 L 26.132812 189.675781 Z M 26.132812 189.910156 " fill-opacity="1" fill-rule="evenodd"/></g><path fill="#f37940" d="M 304.160156 91.816406 L 297.703125 124.566406 C 297.859375 124.566406 298.015625 124.640625 298.171875 124.640625 L 298.402344 124.71875 C 298.714844 124.796875 298.949219 124.796875 299.257812 124.875 L 299.570312 124.953125 C 299.882812 125.03125 300.269531 125.109375 300.582031 125.1875 L 300.660156 125.1875 C 300.96875 125.265625 301.28125 125.34375 301.59375 125.421875 L 301.902344 125.5 C 302.605469 125.652344 303.304688 125.886719 303.925781 126.121094 L 304.238281 126.199219 C 304.550781 126.277344 304.78125 126.355469 305.09375 126.507812 L 305.25 126.585938 C 305.558594 126.664062 305.871094 126.820312 306.261719 126.898438 L 306.492188 126.976562 C 306.726562 127.054688 307.039062 127.210938 307.273438 127.289062 L 307.503906 127.363281 C 307.816406 127.519531 308.128906 127.597656 308.515625 127.753906 L 308.75 127.832031 C 308.984375 127.910156 309.292969 128.066406 309.527344 128.144531 L 309.761719 128.222656 C 310.070312 128.375 310.382812 128.53125 310.695312 128.6875 L 310.851562 128.765625 C 311.082031 128.921875 311.394531 129 311.628906 129.15625 L 311.859375 129.308594 C 312.171875 129.464844 312.484375 129.621094 312.792969 129.777344 L 312.949219 129.855469 C 313.183594 130.011719 313.496094 130.164062 313.726562 130.320312 L 313.960938 130.476562 C 314.273438 130.632812 314.507812 130.789062 314.738281 130.945312 L 314.816406 131.019531 C 315.128906 131.175781 315.363281 131.410156 315.671875 131.566406 L 315.90625 131.722656 C 316.140625 131.878906 316.375 132.03125 316.605469 132.1875 L 316.761719 132.265625 C 317.074219 132.421875 317.308594 132.65625 317.617188 132.8125 L 317.851562 132.964844 C 318.085938 133.121094 318.316406 133.277344 318.472656 133.433594 L 318.707031 133.589844 C 318.941406 133.820312 319.25 133.976562 319.484375 134.210938 L 319.71875 134.367188 C 319.953125 134.523438 320.105469 134.675781 320.339844 134.832031 L 320.574219 134.988281 C 320.808594 135.222656 321.117188 135.457031 321.351562 135.609375 L 321.507812 135.765625 C 321.742188 135.921875 321.894531 136.15625 322.128906 136.3125 L 322.363281 136.542969 C 322.597656 136.777344 322.828125 137.011719 323.0625 137.246094 L 323.21875 137.398438 C 323.453125 137.632812 323.609375 137.789062 323.839844 138.023438 L 324.074219 138.257812 C 324.308594 138.488281 324.464844 138.644531 324.695312 138.878906 L 324.773438 138.957031 C 325.007812 139.191406 325.242188 139.421875 325.476562 139.65625 L 325.707031 139.890625 C 325.863281 140.121094 326.097656 140.277344 326.253906 140.511719 L 326.410156 140.667969 C 326.640625 140.902344 326.875 141.210938 327.03125 141.445312 L 327.265625 141.679688 C 327.417969 141.914062 327.574219 142.066406 327.730469 142.300781 L 327.964844 142.535156 C 328.199219 142.769531 328.351562 143.078125 328.585938 143.3125 L 328.742188 143.546875 C 328.898438 143.777344 329.054688 143.933594 329.207031 144.167969 L 329.441406 144.480469 C 329.597656 144.710938 329.832031 145.023438 329.988281 145.257812 L 330.140625 145.492188 C 330.296875 145.722656 330.453125 145.957031 330.609375 146.191406 L 330.765625 146.425781 C 330.921875 146.734375 331.152344 146.96875 331.308594 147.28125 L 331.386719 147.433594 C 331.542969 147.667969 331.699219 147.902344 331.855469 148.214844 L 332.007812 148.523438 C 332.164062 148.757812 332.320312 148.992188 332.398438 149.300781 L 332.476562 149.457031 C 327.1875 128.144531 317.382812 108.539062 304.160156 91.816406 Z M 304.160156 91.816406 " fill-opacity="1" fill-rule="evenodd"/><path fill="#f37940" d="M 261.609375 54.398438 L 275.222656 125.964844 C 278.175781 125.03125 281.289062 124.410156 284.480469 124.097656 L 293.269531 79.367188 C 283.855469 69.800781 273.277344 61.398438 261.609375 54.398438 Z M 261.609375 54.398438 " fill-opacity="1" fill-rule="evenodd"/><path fill="#f37940" d="M 200.699219 33.78125 L 258.03125 135.535156 C 259.585938 134.210938 261.21875 132.964844 263.007812 131.800781 L 246.828125 46.695312 C 232.515625 40.082031 217.035156 35.648438 200.699219 33.78125 Z M 200.699219 33.78125 " fill-opacity="1" fill-rule="evenodd"/><path fill="#f2a154" d="M 109.757812 50.820312 C 91.011719 60.855469 74.519531 74.542969 61.375 91.113281 L 241.070312 177.460938 C 240.914062 175.90625 240.835938 174.273438 240.835938 172.71875 C 240.835938 170.851562 240.914062 169.0625 241.148438 167.273438 Z M 109.757812 50.820312 " fill-opacity="1" fill-rule="evenodd"/><g clip-path="url(#7436ee57e4)"><path fill="#f2a154" d="M 185.140625 32.691406 C 184.207031 32.691406 183.351562 32.691406 182.417969 32.691406 C 161.179688 32.691406 140.875 36.972656 122.441406 44.75 L 244.804688 153.191406 C 245.894531 150.625 247.292969 148.136719 248.773438 145.800781 Z M 185.140625 32.691406 " fill-opacity="1" fill-rule="evenodd"/></g><path fill="#fbd935" d="M 27.691406 185.785156 L 132.398438 185.785156 L 29.867188 161.28125 C 28.546875 169.292969 27.765625 177.460938 27.691406 185.785156 Z M 27.691406 185.785156 " fill-opacity="1" fill-rule="evenodd"/><path fill="#fbd935" d="M 32.589844 148.523438 L 188.640625 185.785156 L 228.390625 185.785156 L 53.59375 101.773438 C 44.179688 115.929688 37.023438 131.644531 32.589844 148.523438 Z M 32.589844 148.523438 " fill-opacity="1" fill-rule="evenodd"/><path fill="#fbd935" d="M 289.613281 139.96875 C 271.566406 139.96875 256.941406 154.59375 256.941406 172.640625 C 256.941406 190.6875 271.566406 205.3125 289.613281 205.3125 C 307.660156 205.3125 322.285156 190.6875 322.285156 172.640625 C 322.285156 154.59375 307.660156 139.96875 289.613281 139.96875 Z M 289.613281 139.96875 " fill-opacity="1" fill-rule="evenodd"/></svg>